<?xml version="1.0" encoding="UTF-8"?>
<svg id="Capa_1" xmlns="http://www.w3.org/2000/svg" version="1.1" viewBox="0 0 80 80">
  <!-- Generator: Adobe Illustrator 29.8.2, SVG Export Plug-In . SVG Version: 2.1.1 Build 3)  -->
  <defs>
    <style>
      .st0 {
        fill: #fadb45;
      }
    </style>
  </defs>
  <circle cx="40" cy="40" r="35"/>
  <path class="st0" d="M66.17,25.3c-2.79-.79-5.64-.47-8.47-.19-.22.02-.47.07-.44.39.04.42,1.5,1.68,1.95,1.66.91-.04,1.83-.04,2.71.22.88.26,1.08.95.49,1.65-.54.65-1.27,1.06-1.97,1.52-.71.47-1.08.46-1.56-.21-.36-.75-.79-1.48-1.28-2.18-1.02-1.44-4.24-4.94-5.84-5.82-3.55-1.7-6.48-2.88-10.52-2.88-5.26,0-11.88,2.47-15.44,6.79-1.41,1.65-2.82,3.35-3.41,5.61-.1.26-.24.51-.34.82-.93,2.06-1.27,4.27-1.31,6.69.09.92.1,1.97.34,3.04,0,.03,0,.06,0,.08.03.36.32.91-.38.96-1.09.09-2.2.2-3.25-.28-.87-.4-1.04-1.03-.47-1.83.42-.59.99-1.04,1.57-1.47,1.03-.76,1.31-1.59.94-3.04-1.68.83-3.21,1.86-4.69,2.97-1.12.84-2.23,1.72-2.97,2.95-.95,1.58-.47,3.01,1.24,3.65.6.22,1.23.37,1.87.46,2.49.38,4.99.22,7.48-.08,3.17-.38,6.24-1.19,9.32-2,.34-.27.74-.34,1.15-.39.08-.03.15-.05.23-.08.27-.19.57-.32.91-.34.44-.17.87-.33,1.31-.5.91-.42,1.82-.84,2.73-1.27,2.21-1.15,4.27-2.51,5.98-4.36,2.01-2.17,3.24-4.65,2.86-7.71-.03-.21-.15-.47.12-.61.31-.16.38.15.49.31,1.33,1.88,3.21,2.95,5.32,3.7,5.55,1.98,10.64.45,14.56-3.54,2.03-2.07,1.51-3.94-1.23-4.71"/>
  <path class="st0" d="M61.38,36.58h0c-.07-.44-.2-.8-.49-.92-.79-.34-1.74.67-2.49,1.28-3.28,2.64-5.39,5.83-4.64,10.3.03.17-.06.29-.22.34-2.59-2.9-3.56-3.61-6.21-4.2-3.36-.75-6.68-.69-9.88.8-1.27.75-2.52,1.54-3.62,2.53-.06.07-.12.13-.19.2-.31.4-.62.8-.93,1.2-.1.2-.19.41-.3.61-1.87,3.54-.99,7.44,2.25,9.77,1.5,1.08,3.14,1.67,4.86,1.92h0s.04,0,.07,0c.54.08,1.09.12,1.65.13.02,0,.05,0,.07,0,.56,0,1.12,0,1.68-.05.57-.04,1.13-.11,1.68-.19,2.01-.25,4.12-.7,5.75-1.58,3.68-2.03,7.56-4.59,9.49-8.66.44-.94.82-1.88,1.16-2.77,1.07-2.77,1.4-5.58.92-8.5-.1-.6-.5-1.6-.61-2.2"/>
</svg>