<?xml version="1.0" encoding="UTF-8"?>
<svg id="Capa_1" xmlns="http://www.w3.org/2000/svg" version="1.1" viewBox="0 0 1920 1080">
  <!-- Generator: Adobe Illustrator 29.8.2, SVG Export Plug-In . SVG Version: 2.1.1 Build 3)  -->
  <defs>
    <style>
      .st0 {
        fill: #fffbbe;
      }

      .st1 {
        fill: #ffe650;
      }
    </style>
  </defs>
  <path class="st1" d="M883.22,175.83c23.52,2.94,47.04,0,70.56-5.15,15.43-3.67,29.4,0,44.1,4.41,6.61,1.47,9.55,7.35,8.82,14.7-1.47,8.82-4.41,16.91-9.56,24.26-16.91,24.26-22.79,52.19-24.99,80.85-2.94,40.43-2.94,80.85-3.67,121.28,0,22.05.73,44.84.73,66.89.74,19.84,3.68,38.96,8.09,58.07,2.94,11.76,10.29,19.11,22.05,22.05,19.84,4.41,39.69,6.62,59.54,2.94,7.35-1.47,13.97-2.21,21.31-2.21,37.49-.74,72.04-11.76,103.64-31.61,8.82-5.88,16.91-8.08,26.46-7.35,11.03,1.47,19.85,8.82,16.91,22.05-2.21,10.29-5.88,19.85-10.29,28.67-16.17,30.87-30.14,62.48-42.64,94.08-.73,3.67-2.2,7.35-4.41,10.29-5.88,10.29-11.76,13.23-22.79,9.55-5.15-.73-9.56-2.2-14.7-3.67-19.11-6.62-38.96-10.29-60.27-9.56-32.34.73-65.42-.74-98.5.73-26.46,1.47-52.18,3.68-78.65,3.68-16.17,0-31.61.74-47.04-.73-11.02,0-21.31-2.21-31.61-4.41-8.08-2.21-11.76-7.35-11.02-16.17.73-5.88,1.47-11.76,3.68-16.91,1.47-5.14,3.67-11.02,7.35-15.44,11.76-16.91,16.91-35.28,19.85-55.13,3.68-28.67,5.15-56.6,5.88-84.53,0-58.07-1.47-117.6-5.88-175.67-1.47-16.17-3.68-32.34-5.88-49.25-2.21-12.5-6.61-24.26-12.49-36.02-4.41-8.09-8.08-16.17-11.03-24.99-2.94-7.35.73-12.49,7.35-16.17,11.03-5.88,22.79-9.55,35.28-9.55h33.81Z"/>
  <path class="st1" d="M1657.23,172.16c18.38,0,30.14,7.35,35.28,24.99,4.41,13.23,8.08,26.46,12.49,40.43l48.51,144.8c3.68,11.76,7.35,24.26,11.02,36.02,8.82,33.81,24.26,65.42,38.22,97.02,9.56,22.05,20.58,43.37,30.87,65.42,8.82,20.58,23.52,33.81,37.49,51.45,5.14,5.88,9.56,12.49,13.97,19.11,2.2,2.94,2.94,5.88,3.67,9.56,1.47,5.88-2.2,12.49-8.08,14.7-3.68,1.47-8.09,2.21-12.5,2.94-11.03.73-22.79,1.47-33.81,2.21-33.81,0-142.6.74-163.92-.73-9.55-1.47-27.2-3.68-27.2-16.17.73-11.02,5.15-20.58,11.02-29.4,8.82-12.5,8.09-12.5,5.15-27.2-1.47-5.88-4.41-11.03-6.62-16.17-8.08-20.58-3.67-22.79-31.61-22.79-41.9.74-84.53,1.47-126.42,2.21-6.62,0-12.5.74-16.91,5.88-5.88,6.61-10.29,13.96-9.56,22.78.73,5.88,2.21,12.5,5.15,18.38,3.68,8.82,8.08,17.64,12.49,26.46,2.21,4.41,5.15,9.56,5.15,13.96,1.47,12.5,1.47,24.26-19.85,23.52-8.82,0-16.91,0-25.73-.74-32.34-1.47-64.68-3.68-96.29-.73-8.09.73-16.17,0-23.52,0-12.49-.74-24.26-1.47-36.75,1.47-4.41.73-9.55.73-14.7,0-3.67,0-7.35-1.47-10.29-2.94-6.62-5.15-13.96-10.29-20.58-16.17-4.41-2.94-5.14-8.82-1.47-13.23,2.94-3.68,6.62-8.09,11.03-11.76,44.84-36.75,73.5-113.2,92.61-166.86,18.38-49.25,35.28-98.49,52.92-148.48,8.82-24.26,14.7-49.25,18.38-74.24,1.47-11.76.73-22.05-5.15-33.08-3.68-5.88-5.88-12.5-5.88-19.85.73-6.62,2.94-12.49,10.29-13.97,9.56-2.94,19.11-5.88,28.67-5.88,19.11-1.47,38.22-2.21,58.07-2.21,21.32-.73,42.63,0,63.95,0,30.14,0,60.27,0,90.41-.73M1564.61,303.73c-11.76,10.29-13.23,11.03-19.11,24.26-16.17,38.96-27.93,79.38-38.22,120.55-1.47,5.14.73,10.29,5.88,11.76,8.82,2.21,16.91,5.88,25.73,5.88,21.31,0,42.63-.73,63.95-1.47,5.14,0,9.55-1.47,13.96-2.94,5.14-1.47,6.61-5.15,5.88-10.29-9.56-46.31-20.58-93.35-47.04-133.04-2.94-5.15-6.61-8.82-11.02-14.7"/>
  <path class="st1" d="M735.6,229.87c-35.91-10.19-72.49-6.1-108.89-2.49-2.86.28-6.01.84-5.63,4.96.49,5.35,19.24,21.58,25.11,21.34,11.74-.48,23.5-.55,34.81,2.82,11.32,3.38,13.89,12.2,6.29,21.27-6.94,8.29-16.34,13.61-25.29,19.54-9.11,6.03-13.9,5.97-20.1-2.68-4.68-9.64-10.13-19-16.46-28.08-13.15-18.53-54.47-63.53-75.14-74.78-45.71-21.84-83.27-37.06-135.24-37.06-67.62,0-152.78,31.76-198.49,87.35-18.16,21.17-36.32,43.01-43.83,72.13-1.25,3.31-3.13,6.62-4.38,10.59-11.9,26.47-16.28,54.92-16.91,86.02,1.18,11.8,1.29,25.36,4.4,39.02.03.36.04.72.07,1.08.36,4.67,4.1,11.71-4.87,12.41-14.06,1.1-28.31,2.59-41.74-3.61-11.22-5.18-13.33-13.29-6.02-23.5,5.44-7.59,12.73-13.4,20.19-18.88,13.3-9.77,16.9-20.4,12.12-39.1-21.64,10.68-41.33,23.93-60.33,38.19-14.42,10.82-28.63,22.12-38.14,37.87-12.25,20.3-6.07,38.75,15.91,46.93,7.68,2.86,15.88,4.71,24,5.96,32.07,4.94,64.14,2.88,96.14-.98,40.71-4.91,80.26-15.25,119.78-25.76,4.34-3.42,9.53-4.37,14.8-5.07.99-.33,1.98-.66,2.97-.99,3.52-2.5,7.35-4.17,11.72-4.4,5.6-2.13,11.2-4.26,16.8-6.4,11.71-5.42,23.41-10.85,35.12-16.27,28.45-14.79,54.94-32.31,76.87-56,25.87-27.96,41.67-59.75,36.81-99.17-.33-2.72-1.9-6.02,1.51-7.79,3.95-2.05,4.87,1.98,6.32,4.03,17.06,24.12,41.27,37.97,68.34,47.62,71.39,25.47,136.76,5.78,187.25-45.56,26.12-26.56,19.36-50.61-15.86-60.6"/>
  <path class="st1" d="M673.99,374.96h0c-.91-5.66-2.63-10.26-6.31-11.86-10.16-4.41-22.37,8.64-32.01,16.4-42.13,33.92-69.3,74.96-59.69,132.38.36,2.16-.73,3.68-2.86,4.36-33.35-37.35-45.83-46.44-79.81-53.97-43.24-9.58-85.93-8.86-126.97,10.3-16.37,9.64-32.34,19.85-46.57,32.55-.8.86-1.6,1.73-2.4,2.59-4.01,5.13-8.01,10.26-12.02,15.39-1.28,2.6-2.48,5.25-3.84,7.81-24.07,45.48-12.72,95.61,28.94,125.62,19.34,13.93,40.42,21.46,62.47,24.62l-.03.02c.28.04.57.06.85.1,6.99.97,14.07,1.5,21.23,1.66.32,0,.63.03.95.03,7.15.12,14.37-.12,21.65-.68,7.29-.56,14.47-1.4,21.54-2.5,25.79-3.21,52.98-9.02,73.95-20.31,47.32-26.16,97.14-59.03,122.04-111.36,5.61-12.07,10.59-24.15,14.94-35.55,13.7-35.55,18.06-71.78,11.83-109.34-1.28-7.69-6.45-20.63-7.87-28.27"/>
  <path class="st1" d="M1806.54,184.85c0,2.43-.59,4.38-1.76,5.85-1.17,1.46-2.79,2.45-4.86,2.96l6.15,12.29h-5.19l-5.96-11.91h-6.77v11.91h-4.47v-30.09h13.19c1.32,0,2.56.18,3.72.54,1.16.36,2.18.9,3.07,1.63.89.73,1.59,1.66,2.11,2.79.52,1.13.77,2.47.77,4.02M1801.99,184.98c0-1.57-.46-2.78-1.39-3.61-.93-.83-2.16-1.25-3.71-1.25h-8.74v9.67h8.74c1.51,0,2.74-.39,3.69-1.18.94-.79,1.41-2,1.41-3.63"/>
  <path class="st1" d="M1794.68,220.7c-15.92,0-28.87-12.95-28.87-28.87s12.95-28.87,28.87-28.87,28.86,12.95,28.86,28.87-12.95,28.87-28.86,28.87M1794.68,166.63c-13.9,0-25.21,11.31-25.21,25.21s11.31,25.21,25.21,25.21,25.21-11.31,25.21-25.21-11.31-25.21-25.21-25.21"/>
  <path class="st0" d="M621.94,923.47c2.89-.37,5.04-.82,6.46-1.38,1.42-.55,2.49-1.4,3.2-2.54.71-1.15,1.29-2.91,1.75-5.29l14.3-71.51c.32-1.47.48-2.77.48-3.92s-.25-2.12-.76-2.79c-.5-.66-1.33-1.18-2.48-1.55-1.15-.37-2.8-.69-4.95-.96l.34-1.79h67.73l-5.09,36.79h-1.99c-.05-8.71-.53-15.45-1.44-20.22-.92-4.77-2.51-8.19-4.78-10.28-2.27-2.09-5.56-3.13-9.87-3.13h-20.28l-8.32,41.46h30.32l-.62,3.16h-30.33l-7.29,36.72c-.14.74-.21,1.38-.21,1.93,0,.96.22,1.73.65,2.3.43.57,1.1.99,1.99,1.24s2.07.38,3.54.38h16.3c4.72,0,8.71-1.08,11.96-3.23,3.25-2.15,6.26-5.67,9.01-10.56,2.75-4.88,5.73-11.79,8.94-20.73h1.99l-9.28,37.68h-71.65l.34-1.79Z"/>
  <path class="st0" d="M728.58,926.98c-4.58,0-8.54-.6-11.86-1.79-3.33-1.19-5.85-2.83-7.56-4.92-1.72-2.08-2.58-4.46-2.58-7.12,0-1.74.35-3.39,1.07-4.95.71-1.56,1.75-2.83,3.13-3.82,1.38-.99,3.03-1.48,4.95-1.48,1.24,0,2.34.22,3.3.65.96.44,1.73,1.07,2.3,1.89.57.82.86,1.76.86,2.82s-.28,2.21-.83,3.61c-.55,1.4-1.23,2.77-2.03,4.13-.8,1.35-1.68,2.76-2.65,4.23.73.82,1.7,1.56,2.89,2.2,1.19.64,2.59,1.13,4.2,1.48,1.6.34,3.35.52,5.23.52,3.07,0,5.68-.54,7.84-1.62,2.15-1.08,3.77-2.57,4.85-4.47,1.08-1.9,1.62-4.14,1.62-6.7,0-1.79-.32-3.38-.96-4.78-.64-1.4-1.61-2.67-2.92-3.82-1.31-1.14-2.99-2.22-5.05-3.23l-7.84-3.85c-3.85-1.88-6.88-4.21-9.08-6.98-2.2-2.77-3.3-5.95-3.3-9.52,0-4.49,1.27-8.34,3.82-11.55,2.54-3.21,5.89-5.63,10.04-7.26,4.15-1.63,8.65-2.44,13.51-2.44,4.35,0,8.11.58,11.28,1.75,3.16,1.17,5.56,2.77,7.19,4.81,1.63,2.04,2.44,4.37,2.44,6.98,0,1.7-.36,3.32-1.07,4.88-.71,1.56-1.74,2.82-3.09,3.78-1.35.96-2.97,1.44-4.85,1.44-1.15,0-2.19-.22-3.13-.65-.94-.43-1.67-1.04-2.2-1.82-.53-.78-.79-1.7-.79-2.75s.26-2.19.79-3.54c.53-1.35,1.18-2.72,1.96-4.09.78-1.38,1.63-2.75,2.55-4.12-.69-.83-1.57-1.56-2.65-2.2-1.08-.64-2.29-1.13-3.64-1.48-1.35-.34-2.79-.52-4.3-.52-2.52,0-4.8.46-6.84,1.38-2.04.92-3.67,2.28-4.88,4.09-1.22,1.81-1.82,3.98-1.82,6.5,0,1.79.33,3.38,1,4.78.66,1.4,1.65,2.65,2.96,3.75,1.31,1.1,2.97,2.15,4.99,3.16l7.91,3.85c2.24,1.1,4.24,2.36,5.98,3.78,1.74,1.42,3.15,3.15,4.23,5.19,1.08,2.04,1.62,4.34,1.62,6.91,0,4.58-1.24,8.61-3.71,12.07-2.48,3.46-5.88,6.13-10.21,8.01-4.33,1.88-9.2,2.82-14.61,2.82"/>
  <path class="st0" d="M750.24,954.76c2.66-.41,4.66-.89,6.02-1.44,1.35-.55,2.42-1.46,3.2-2.72.78-1.26,1.42-3.13,1.92-5.6l13.48-67.87c.5-2.61.76-4.54.76-5.78s-.24-2.18-.72-2.96c-.48-.78-1.26-1.46-2.34-2.03-1.08-.57-2.62-1.2-4.64-1.89l.27-1.31,25.24-4.95-5.29,27.02-1.38,1.99c.96-4.31,2.85-8.71,5.67-13.2,2.82-4.49,6.35-8.25,10.59-11.28,4.24-3.02,8.81-4.54,13.72-4.54,4.08,0,7.52.83,10.32,2.48,2.8,1.65,4.9,4.05,6.33,7.18,1.42,3.14,2.13,6.91,2.13,11.31,0,8.48-1.79,16.38-5.36,23.69-3.58,7.31-8.65,13.16-15.23,17.53-6.58,4.38-14.13,6.57-22.66,6.57-3.26,0-6.11-.34-8.56-1.03-2.45-.69-4.69-1.63-6.7-2.82l3.58-.21-4.4,22.07c-.23,1.28-.34,2.31-.34,3.09,0,1.56.42,2.76,1.27,3.61.85.85,2.17,1.49,3.96,1.93,1.79.43,4.38.81,7.77,1.13l-.27,1.38h-38.58l.27-1.38ZM792.53,923.81c5.18,0,9.77-2.2,13.79-6.6,4.01-4.4,7.12-9.92,9.32-16.57,2.2-6.65,3.3-13.2,3.3-19.67,0-4.17-.87-7.45-2.61-9.83-1.74-2.38-4.42-3.57-8.04-3.57-3.3,0-6.45,1.24-9.46,3.71-3,2.47-5.65,6.01-7.94,10.59-2.29,4.59-4.06,9.97-5.29,16.16l-4.81,23.93-1.99-2.27c1.24,1.15,3.03,2.12,5.36,2.92,2.34.8,5.13,1.2,8.39,1.2"/>
  <path class="st0" d="M851.32,926.98c-3.03,0-5.36-.87-7.01-2.61-1.65-1.74-2.48-4.26-2.48-7.56,0-1.1.21-2.77.62-5.02l6.95-34.65c.5-2.61.76-4.51.76-5.71s-.24-2.25-.72-3.03c-.48-.78-1.26-1.46-2.34-2.03-1.08-.57-2.62-1.22-4.64-1.96l.27-1.31,25.24-4.88-11.14,55.56c-.14.74-.21,1.42-.21,2.06,0,.82.17,1.47.52,1.92.34.46.95.69,1.82.69,1.42,0,2.86-.86,4.33-2.58,1.47-1.72,2.85-4.08,4.16-7.08,1.31-3,2.51-6.45,3.61-10.35l1.65.55c-1.38,5.55-2.97,10.36-4.78,14.44-1.81,4.08-4.09,7.36-6.84,9.83-2.75,2.47-6.01,3.71-9.77,3.71M861.91,852.37c-1.83,0-3.54-.44-5.12-1.31-1.58-.87-2.83-2.06-3.75-3.57-.92-1.51-1.38-3.16-1.38-4.95,0-1.88.46-3.6,1.38-5.16.92-1.56,2.15-2.8,3.71-3.71,1.56-.92,3.28-1.38,5.16-1.38s3.76.46,5.36,1.38c1.6.92,2.86,2.15,3.78,3.71s1.38,3.28,1.38,5.16-.47,3.44-1.41,4.95c-.94,1.51-2.21,2.71-3.82,3.57-1.6.87-3.37,1.31-5.29,1.31"/>
  <path class="st0" d="M886.25,877.12c.5-2.61.76-4.51.76-5.71s-.24-2.18-.72-2.96c-.48-.78-1.26-1.47-2.34-2.06-1.08-.6-2.62-1.26-4.64-1.99l.27-1.24,25.3-4.95-8.32,38.85h-.62c1.74-6.78,4.34-13.13,7.8-19.05s7.58-10.69,12.34-14.34c4.77-3.64,9.88-5.47,15.33-5.47l-2.96,15.06c-1.51-.37-3.35-.55-5.5-.55-4.26,0-8.26,1.29-12,3.88-3.74,2.59-6.93,6.22-9.59,10.9-2.66,4.68-4.56,10.06-5.71,16.16l-4.13,21.59h-14.92l9.63-48.13Z"/>
  <path class="st0" d="M942.84,926.98c-3.03,0-5.36-.87-7.01-2.61-1.65-1.74-2.48-4.26-2.48-7.56,0-1.1.21-2.77.62-5.02l6.95-34.65c.5-2.61.76-4.51.76-5.71s-.24-2.25-.72-3.03c-.48-.78-1.26-1.46-2.34-2.03-1.08-.57-2.62-1.22-4.64-1.96l.27-1.31,25.24-4.88-11.14,55.56c-.14.74-.21,1.42-.21,2.06,0,.82.17,1.47.52,1.92.34.46.95.69,1.82.69,1.42,0,2.86-.86,4.33-2.58,1.47-1.72,2.85-4.08,4.16-7.08,1.31-3,2.51-6.45,3.61-10.35l1.65.55c-1.38,5.55-2.97,10.36-4.78,14.44-1.81,4.08-4.09,7.36-6.84,9.83-2.75,2.47-6.01,3.71-9.77,3.71M953.43,852.37c-1.83,0-3.54-.44-5.12-1.31-1.58-.87-2.83-2.06-3.75-3.57-.92-1.51-1.38-3.16-1.38-4.95,0-1.88.46-3.6,1.38-5.16.92-1.56,2.15-2.8,3.71-3.71,1.56-.92,3.28-1.38,5.16-1.38s3.76.46,5.36,1.38c1.6.92,2.86,2.15,3.78,3.71s1.38,3.28,1.38,5.16-.47,3.44-1.41,4.95c-.94,1.51-2.21,2.71-3.82,3.57-1.6.87-3.37,1.31-5.29,1.31"/>
  <path class="st0" d="M987.95,926.91c-4.81,0-8.42-1.21-10.83-3.64-2.41-2.43-3.61-5.98-3.61-10.66,0-1.97.3-4.49.89-7.56l8.39-42.01h-11.28l.62-3.1h11.28l3.23-16.36,15.82-5.23-4.26,21.59h24.13l-.62,3.1h-24.14l-7.91,39.47c-.46,2.15-.69,4.24-.69,6.26,0,2.8.6,4.92,1.79,6.36,1.19,1.44,3.09,2.17,5.71,2.17,2.93,0,5.48-.81,7.63-2.44,2.15-1.63,3.99-3.81,5.5-6.53,1.51-2.73,2.91-6.02,4.19-9.87l1.65.62c-1.47,4.91-3.38,9.43-5.74,13.58-2.36,4.15-5.36,7.57-9.01,10.25-3.64,2.68-7.9,4.02-12.75,4.02"/>
  <path class="st0" d="M1037.73,926.98c-4.4,0-7.83-1.13-10.28-3.4-2.45-2.27-3.68-5.67-3.68-10.21,0-2.06.23-4.22.69-6.46l5.98-29.84c.5-2.61.76-4.51.76-5.71s-.24-2.19-.72-2.99c-.48-.8-1.26-1.49-2.34-2.06-1.08-.57-2.62-1.2-4.64-1.89l.28-1.38,25.23-4.81-9.15,45.86c-.51,2.43-.76,4.47-.76,6.12,0,2.25.54,3.92,1.61,5.02,1.08,1.1,2.9,1.65,5.47,1.65,3.25,0,6.48-1.51,9.66-4.54,3.19-3.02,6.02-7.08,8.49-12.17,2.47-5.09,4.31-10.61,5.5-16.57l4.74-23.65h14.78l-10.73,53.84c-.14.73-.21,1.42-.21,2.06,0,.83.17,1.47.52,1.93.34.46.95.69,1.82.69,1.42,0,2.86-.86,4.33-2.58,1.47-1.72,2.85-4.08,4.16-7.08,1.31-3,2.51-6.45,3.61-10.35l1.65.55c-1.38,5.5-2.97,10.29-4.78,14.37-1.81,4.08-4.09,7.37-6.84,9.87-2.75,2.5-5.98,3.75-9.7,3.75-2.06,0-3.82-.4-5.26-1.2s-2.54-1.95-3.3-3.44c-.76-1.49-1.13-3.27-1.13-5.33,0-1.19.14-2.55.41-4.06l3.23-16.16,1.38-2.41c-1.42,5-3.63,10-6.64,15.02-3,5.02-6.61,9.2-10.83,12.55-4.22,3.35-8.66,5.02-13.34,5.02"/>
  <path class="st0" d="M1208.15,896.1c0,4.59-.73,8.76-2.2,12.52-1.47,3.76-3.76,6.99-6.88,9.69-3.12,2.71-7.04,4.79-11.76,6.26-4.72,1.47-10.38,2.2-16.98,2.2-8.07,0-15.4-1.56-22-4.68-6.6-3.11-11.74-7.38-15.4-12.79l13.89-12.38c3.39,3.94,7.17,6.76,11.35,8.46,4.17,1.7,8.59,2.54,13.27,2.54,5.78,0,10.02-.82,12.72-2.48,2.7-1.65,4.06-4.31,4.06-7.98,0-1.56-.28-2.91-.83-4.06-.55-1.14-1.58-2.22-3.09-3.23-1.51-1.01-3.69-1.97-6.53-2.89-2.84-.92-6.51-1.88-11-2.89-4.4-1.01-8.46-2.2-12.17-3.58-3.71-1.38-6.9-3.11-9.56-5.22-2.66-2.11-4.72-4.77-6.19-7.98-1.47-3.21-2.2-7.2-2.2-11.96,0-4.4.9-8.34,2.68-11.83,1.79-3.48,4.24-6.44,7.36-8.87,3.12-2.43,6.76-4.29,10.93-5.57,4.17-1.28,8.64-1.93,13.41-1.93,7.52,0,14.1,1.33,19.73,3.99,5.64,2.66,10.75,6.37,15.33,11.14l-13.89,13.48c-3.12-3.21-6.44-5.66-9.97-7.36-3.53-1.7-7.49-2.54-11.9-2.54-2.57,0-4.72.25-6.46.76-1.74.51-3.16,1.17-4.26,1.99-1.1.82-1.88,1.74-2.34,2.75-.46,1.01-.69,2.06-.69,3.16,0,1.56.3,2.87.89,3.92.6,1.05,1.63,1.99,3.09,2.82,1.46.83,3.44,1.61,5.91,2.34,2.48.74,5.64,1.56,9.49,2.48,3.85.92,7.68,1.99,11.48,3.23,3.8,1.24,7.24,2.96,10.31,5.16,3.07,2.2,5.57,5,7.49,8.39,1.93,3.39,2.89,7.7,2.89,12.93"/>
  <path class="st0" d="M1295.89,925.26l-7.56-21.45h-35.2l-7.56,21.45h-20.63l36.86-96.27h18.7l36.58,96.27h-21.18ZM1275.53,868.05c-1.01-2.84-1.95-5.59-2.82-8.25-.87-2.66-1.54-4.9-1.99-6.74-.46,1.83-1.12,4.08-1.99,6.74-.87,2.66-1.81,5.41-2.82,8.25l-6.19,17.47h22l-6.19-17.47Z"/>
  <path class="st0" d="M1402.74,925.26l-35.34-52.53c-1.19-1.83-2.45-3.78-3.78-5.85-1.33-2.06-2.32-3.74-2.96-5.02,0,.92.02,2.27.07,4.06.04,1.79.07,3.71.07,5.78s.02,4.1.07,6.12c.05,2.02.07,3.71.07,5.09v42.36h-19.12v-96.27h18.57l33.99,50.88c1.19,1.84,2.44,3.78,3.77,5.85,1.32,2.06,2.31,3.74,2.95,5.02,0-.91-.02-2.27-.07-4.06-.05-1.79-.07-3.71-.07-5.78s-.02-4.1-.07-6.12c-.05-2.01-.07-3.71-.07-5.09v-40.71h19.12v96.27h-17.19Z"/>
  <polygon class="st0" points="1491.99 847.97 1491.99 925.26 1472.88 925.26 1472.88 847.97 1445.24 847.97 1445.24 828.99 1519.64 828.99 1519.64 847.97 1491.99 847.97"/>
  <path class="st0" d="M1619.06,877.12c0,7.34-.94,14.05-2.82,20.15-1.88,6.1-4.61,11.32-8.18,15.68-3.57,4.36-7.95,7.75-13.13,10.18-5.18,2.43-11.07,3.65-17.67,3.65s-12.49-1.22-17.67-3.65c-5.18-2.43-9.56-5.82-13.13-10.18-3.57-4.35-6.3-9.58-8.18-15.68-1.88-6.1-2.82-12.81-2.82-20.15s.94-14.05,2.82-20.15c1.88-6.1,4.61-11.32,8.18-15.68,3.58-4.35,7.95-7.75,13.13-10.18,5.18-2.43,11.07-3.65,17.67-3.65s12.49,1.22,17.67,3.65c5.18,2.43,9.56,5.82,13.13,10.18,3.58,4.36,6.3,9.58,8.18,15.68,1.88,6.1,2.82,12.81,2.82,20.15M1599.26,877.12c0-4.31-.41-8.32-1.24-12.03-.83-3.71-2.13-6.95-3.92-9.7-1.79-2.75-4.08-4.9-6.88-6.46-2.8-1.56-6.12-2.34-9.97-2.34s-7.18.78-9.97,2.34c-2.8,1.56-5.09,3.71-6.88,6.46-1.79,2.75-3.09,5.98-3.92,9.7-.83,3.71-1.24,7.72-1.24,12.03s.41,8.32,1.24,12.03c.83,3.71,2.13,6.95,3.92,9.7,1.79,2.75,4.08,4.9,6.88,6.46,2.8,1.56,6.12,2.34,9.97,2.34s7.17-.78,9.97-2.34c2.8-1.56,5.09-3.71,6.88-6.46,1.79-2.75,3.09-5.98,3.92-9.7.82-3.71,1.24-7.72,1.24-12.03"/>
  <path class="st0" d="M384.55,877.12c0,7.34-.94,14.05-2.82,20.15-1.88,6.1-4.61,11.32-8.18,15.68-3.58,4.36-7.95,7.75-13.13,10.18-5.18,2.43-11.07,3.65-17.67,3.65s-12.49-1.22-17.67-3.65c-5.18-2.43-9.56-5.82-13.13-10.18-3.57-4.35-6.3-9.58-8.18-15.68-1.88-6.1-2.82-12.81-2.82-20.15s.94-14.05,2.82-20.15c1.88-6.1,4.61-11.32,8.18-15.68,3.58-4.35,7.95-7.75,13.13-10.18,5.18-2.43,11.07-3.65,17.67-3.65s12.49,1.22,17.67,3.65c5.18,2.43,9.56,5.82,13.13,10.18,3.58,4.36,6.3,9.58,8.18,15.68,1.88,6.1,2.82,12.81,2.82,20.15M364.75,877.12c0-4.31-.41-8.32-1.24-12.03-.83-3.71-2.13-6.95-3.92-9.7-1.79-2.75-4.08-4.9-6.88-6.46-2.8-1.56-6.12-2.34-9.97-2.34s-7.17.78-9.97,2.34c-2.8,1.56-5.09,3.71-6.88,6.46s-3.09,5.98-3.92,9.7c-.82,3.71-1.24,7.72-1.24,12.03s.41,8.32,1.24,12.03c.83,3.71,2.13,6.95,3.92,9.7,1.79,2.75,4.08,4.9,6.88,6.46,2.8,1.56,6.12,2.34,9.97,2.34s7.17-.78,9.97-2.34c2.8-1.56,5.09-3.71,6.88-6.46,1.79-2.75,3.09-5.98,3.92-9.7.82-3.71,1.24-7.72,1.24-12.03"/>
  <polygon class="st0" points="411.09 925.26 411.09 828.99 430.21 828.99 430.21 906.28 478.48 906.28 478.48 925.26 411.09 925.26"/>
  <path class="st0" d="M567.32,925.26l-7.57-21.45h-35.2l-7.56,21.45h-20.63l36.86-96.27h18.7l36.58,96.27h-21.18ZM546.96,868.05c-1.01-2.84-1.95-5.59-2.82-8.25-.87-2.66-1.54-4.9-1.99-6.74-.46,1.83-1.12,4.08-1.99,6.74-.87,2.66-1.81,5.41-2.82,8.25l-6.19,17.47h22l-6.19-17.47Z"/>
</svg>