<?xml version="1.0" encoding="UTF-8"?>
<svg id="Capa_1" xmlns="http://www.w3.org/2000/svg" version="1.1" viewBox="0 0 1920 800">
  <!-- Generator: Adobe Illustrator 29.8.3, SVG Export Plug-In . SVG Version: 2.1.1 Build 3)  -->
  <defs>
    <style>
      .st0 {
        fill: #fff;
      }
    </style>
  </defs>
  <path class="st0" d="M883.22,152.92c23.52,2.94,47.04,0,70.56-5.15,15.43-3.67,29.4,0,44.1,4.41,6.61,1.47,9.55,7.35,8.82,14.7-1.47,8.82-4.41,16.91-9.56,24.26-16.91,24.26-22.79,52.19-24.99,80.85-2.94,40.43-2.94,80.85-3.67,121.28,0,22.05.73,44.84.73,66.89.74,19.84,3.68,38.96,8.09,58.07,2.94,11.76,10.29,19.11,22.05,22.05,19.84,4.41,39.69,6.62,59.54,2.94,7.35-1.47,13.97-2.21,21.31-2.21,37.49-.74,72.04-11.76,103.64-31.61,8.82-5.88,16.91-8.08,26.46-7.35,11.03,1.47,19.85,8.82,16.91,22.05-2.21,10.29-5.88,19.85-10.29,28.67-16.17,30.87-30.14,62.48-42.64,94.08-.73,3.67-2.2,7.35-4.41,10.29-5.88,10.29-11.76,13.23-22.79,9.55-5.15-.73-9.56-2.2-14.7-3.67-19.11-6.62-38.96-10.29-60.27-9.56-32.34.73-65.42-.74-98.5.73-26.46,1.47-52.18,3.68-78.65,3.68-16.17,0-31.61.74-47.04-.73-11.02,0-21.31-2.21-31.61-4.41-8.08-2.21-11.76-7.35-11.02-16.17.73-5.88,1.47-11.76,3.68-16.91,1.47-5.14,3.67-11.02,7.35-15.44,11.76-16.91,16.91-35.28,19.85-55.13,3.68-28.67,5.15-56.6,5.88-84.53,0-58.07-1.47-117.6-5.88-175.67-1.47-16.17-3.68-32.34-5.88-49.25-2.21-12.5-6.61-24.26-12.49-36.02-4.41-8.09-8.08-16.17-11.03-24.99-2.94-7.35.73-12.49,7.35-16.17,11.03-5.88,22.79-9.55,35.28-9.55h33.81v.02h.01Z"/>
  <path class="st0" d="M1657.23,149.25c18.38,0,30.14,7.35,35.28,24.99,4.41,13.23,8.08,26.46,12.49,40.43l48.51,144.8c3.68,11.76,7.35,24.26,11.02,36.02,8.82,33.81,24.26,65.42,38.22,97.02,9.56,22.05,20.58,43.37,30.87,65.42,8.82,20.58,23.52,33.81,37.49,51.45,5.14,5.88,9.56,12.49,13.97,19.11,2.2,2.94,2.94,5.88,3.67,9.56,1.47,5.88-2.2,12.49-8.08,14.7-3.68,1.47-8.09,2.21-12.5,2.94-11.03.73-22.79,1.47-33.81,2.21-33.81,0-142.6.74-163.92-.73-9.55-1.47-27.2-3.68-27.2-16.17.73-11.02,5.15-20.58,11.02-29.4,8.82-12.5,8.09-12.5,5.15-27.2-1.47-5.88-4.41-11.03-6.62-16.17-8.08-20.58-3.67-22.79-31.61-22.79-41.9.74-84.53,1.47-126.42,2.21-6.62,0-12.5.74-16.91,5.88-5.88,6.61-10.29,13.96-9.56,22.78.73,5.88,2.21,12.5,5.15,18.38,3.68,8.82,8.08,17.64,12.49,26.46,2.21,4.41,5.15,9.56,5.15,13.96,1.47,12.5,1.47,24.26-19.85,23.52-8.82,0-16.91,0-25.73-.74-32.34-1.47-64.68-3.68-96.29-.73-8.09.73-16.17,0-23.52,0-12.49-.74-24.26-1.47-36.75,1.47-4.41.73-9.55.73-14.7,0-3.67,0-7.35-1.47-10.29-2.94-6.62-5.15-13.96-10.29-20.58-16.17-4.41-2.94-5.14-8.82-1.47-13.23,2.94-3.68,6.62-8.09,11.03-11.76,44.84-36.75,73.5-113.2,92.61-166.86,18.38-49.25,35.28-98.49,52.92-148.48,8.82-24.26,14.7-49.25,18.38-74.24,1.47-11.76.73-22.05-5.15-33.08-3.68-5.88-5.88-12.5-5.88-19.85.73-6.62,2.94-12.49,10.29-13.97,9.56-2.94,19.11-5.88,28.67-5.88,19.11-1.47,38.22-2.21,58.07-2.21,21.32-.73,42.63,0,63.95,0,30.14,0,60.27,0,90.41-.73M1564.61,280.82c-11.76,10.29-13.23,11.03-19.11,24.26-16.17,38.96-27.93,79.38-38.22,120.55-1.47,5.14.73,10.29,5.88,11.76,8.82,2.21,16.91,5.88,25.73,5.88,21.31,0,42.63-.73,63.95-1.47,5.14,0,9.55-1.47,13.96-2.94,5.14-1.47,6.61-5.15,5.88-10.29-9.56-46.31-20.58-93.35-47.04-133.04-2.94-5.15-6.61-8.82-11.02-14.7"/>
  <path class="st0" d="M735.6,206.96c-35.91-10.19-72.49-6.1-108.89-2.49-2.86.28-6.01.84-5.63,4.96.49,5.35,19.24,21.58,25.11,21.34,11.74-.48,23.5-.55,34.81,2.82,11.32,3.38,13.89,12.2,6.29,21.27-6.94,8.29-16.34,13.61-25.29,19.54-9.11,6.03-13.9,5.97-20.1-2.68-4.68-9.64-10.13-19-16.46-28.08-13.15-18.53-54.47-63.53-75.14-74.78-45.71-21.84-83.27-37.06-135.24-37.06-67.62,0-152.78,31.76-198.49,87.35-18.16,21.17-36.32,43.01-43.83,72.13-1.25,3.31-3.13,6.62-4.38,10.59-11.9,26.47-16.28,54.92-16.91,86.02,1.18,11.8,1.29,25.36,4.4,39.02.03.36.04.72.07,1.08.36,4.67,4.1,11.71-4.87,12.41-14.06,1.1-28.31,2.59-41.74-3.61-11.22-5.18-13.33-13.29-6.02-23.5,5.44-7.59,12.73-13.4,20.19-18.88,13.3-9.77,16.9-20.4,12.12-39.1-21.64,10.68-41.33,23.93-60.33,38.19-14.42,10.82-28.63,22.12-38.14,37.87-12.25,20.3-6.07,38.75,15.91,46.93,7.68,2.86,15.88,4.71,24,5.96,32.07,4.94,64.14,2.88,96.14-.98,40.71-4.91,80.26-15.25,119.78-25.76,4.34-3.42,9.53-4.37,14.8-5.07.99-.33,1.98-.66,2.97-.99,3.52-2.5,7.35-4.17,11.72-4.4,5.6-2.13,11.2-4.26,16.8-6.4,11.71-5.42,23.41-10.85,35.12-16.27,28.45-14.79,54.94-32.31,76.87-56,25.87-27.96,41.67-59.75,36.81-99.17-.33-2.72-1.9-6.02,1.51-7.79,3.95-2.05,4.87,1.98,6.32,4.03,17.06,24.12,41.27,37.97,68.34,47.62,71.39,25.47,136.76,5.78,187.25-45.56,26.12-26.56,19.36-50.61-15.86-60.6"/>
  <path class="st0" d="M673.99,352.05h0c-.91-5.66-2.63-10.26-6.31-11.86-10.16-4.41-22.37,8.64-32.01,16.4-42.13,33.92-69.3,74.96-59.69,132.38.36,2.16-.73,3.68-2.86,4.36-33.35-37.35-45.83-46.44-79.81-53.97-43.24-9.58-85.93-8.86-126.97,10.3-16.37,9.64-32.34,19.85-46.57,32.55-.8.86-1.6,1.73-2.4,2.59-4.01,5.13-8.01,10.26-12.02,15.39-1.28,2.6-2.48,5.25-3.84,7.81-24.07,45.48-12.72,95.61,28.94,125.62,19.34,13.93,40.42,21.46,62.47,24.62l-.03.02c.28.04.57.06.85.1,6.99.97,14.07,1.5,21.23,1.66.32,0,.63.03.95.03,7.15.12,14.37-.12,21.65-.68,7.29-.56,14.47-1.4,21.54-2.5,25.79-3.21,52.98-9.02,73.95-20.31,47.32-26.16,97.14-59.03,122.04-111.36,5.61-12.07,10.59-24.15,14.94-35.55,13.7-35.55,18.06-71.78,11.83-109.34-1.28-7.69-6.45-20.63-7.87-28.27"/>
  <path class="st0" d="M1806.54,161.94c0,2.43-.59,4.38-1.76,5.85-1.17,1.46-2.79,2.45-4.86,2.96l6.15,12.29h-5.19l-5.96-11.91h-6.77v11.91h-4.47v-30.09h13.19c1.32,0,2.56.18,3.72.54,1.16.36,2.18.9,3.07,1.63.89.73,1.59,1.66,2.11,2.79.52,1.13.77,2.47.77,4.02M1801.99,162.07c0-1.57-.46-2.78-1.39-3.61s-2.16-1.25-3.71-1.25h-8.74v9.67h8.74c1.51,0,2.74-.39,3.69-1.18.94-.79,1.41-2,1.41-3.63"/>
  <path class="st0" d="M1794.68,197.79c-15.92,0-28.87-12.95-28.87-28.87s12.95-28.87,28.87-28.87,28.86,12.95,28.86,28.87-12.95,28.87-28.86,28.87M1794.68,143.72c-13.9,0-25.21,11.31-25.21,25.21s11.31,25.21,25.21,25.21,25.21-11.31,25.21-25.21-11.31-25.21-25.21-25.21"/>
</svg>